<svg width="263" height="81" viewBox="0 0 263 81" fill="none" xmlns="http://www.w3.org/2000/svg">
<path d="M0.531647 54.7958H262.657V56.9717H0.531647V54.7958ZM144.738 27.8001H160.497V31.8801H150.648V34.94H159.75V38.816H150.648V42.5559H160.769V46.9079H144.67V27.8001H144.738ZM162.603 27.8001H180.535V32.4921H174.49V46.9079H168.648V32.4921H162.603V27.8001ZM219.321 46.9079H225.502L218.37 27.8001H211.917L204.785 46.9079H210.83L211.781 43.7799H218.438L219.321 46.9079ZM213.004 39.632L215.109 32.7641L217.215 39.632H213.004ZM226.385 40.5839L231.955 40.2439C232.091 41.1279 232.363 41.8079 232.702 42.2839C233.313 43.0319 234.197 43.4399 235.283 43.4399C236.098 43.4399 236.778 43.2359 237.253 42.8279C237.729 42.4199 237.932 41.9439 237.932 41.4679C237.932 40.9919 237.729 40.516 237.321 40.176C236.914 39.768 235.895 39.428 234.332 39.088C231.751 38.476 229.917 37.728 228.83 36.776C227.744 35.824 227.132 34.6 227.132 33.104C227.132 32.1521 227.404 31.2001 227.947 30.3161C228.491 29.4321 229.374 28.7521 230.529 28.2761C231.683 27.8001 233.246 27.5281 235.215 27.5281C237.661 27.5281 239.495 28.0041 240.785 28.8881C242.076 29.7721 242.823 31.2681 243.095 33.24L237.525 33.58C237.389 32.6961 237.049 32.0841 236.574 31.7441C236.098 31.3361 235.419 31.1321 234.604 31.1321C233.925 31.1321 233.381 31.2681 233.042 31.5401C232.702 31.8121 232.498 32.2201 232.498 32.6281C232.498 32.9001 232.634 33.24 232.974 33.444C233.246 33.716 233.925 33.92 234.944 34.124C237.525 34.668 239.359 35.212 240.446 35.824C241.533 36.368 242.348 37.116 242.891 37.932C243.367 38.748 243.638 39.7 243.638 40.7879C243.638 42.0119 243.299 43.1679 242.619 44.1879C241.94 45.2079 240.989 46.0239 239.766 46.5679C238.544 47.1119 237.049 47.3839 235.147 47.3839C231.887 47.3839 229.645 46.7719 228.423 45.4799C227.2 44.1199 226.521 42.4879 226.385 40.5839ZM246.627 27.8001H262.386V31.8801H252.536V34.94H261.639V38.816H252.536V42.5559H262.657V46.9079H246.627V27.8001ZM119.674 22.7682H125.583L133.259 36.164V22.7682H139.168V46.8399H133.259L125.583 33.512V46.8399H119.674V22.7682ZM184.407 22.7682H201.252V27.9361H190.724V31.7441H200.505V36.64H190.724V41.3999H201.524V46.8399H184.339V22.7682H184.407ZM111.319 60.3717V80.4314H106.088V67.3076C105.205 67.9876 104.458 68.5316 103.643 68.9396C102.828 69.3476 101.877 69.7556 100.654 70.1635V65.6756C102.42 65.0636 103.779 64.3156 104.73 63.4996C105.681 62.6156 106.496 61.5957 107.039 60.3717H111.319ZM138.489 62.5476C137.946 61.8677 137.198 61.3237 136.383 60.9157C135.5 60.5757 134.346 60.3717 132.919 60.3717C130.406 60.3717 128.436 61.1877 127.077 62.8876C125.651 64.5196 124.972 67.1716 124.972 70.7075C124.972 73.1555 125.311 75.1275 125.991 76.5555C126.67 78.0514 127.553 79.1394 128.708 79.8194C129.795 80.4994 131.289 80.8394 133.123 80.8394C134.685 80.8394 135.976 80.5674 136.995 80.0234C138.014 79.4794 138.829 78.6634 139.372 77.5754C139.915 76.4875 140.255 75.3315 140.255 73.9715C140.255 72.0675 139.712 70.4355 138.557 69.2116C137.402 67.9196 136.044 67.3076 134.346 67.3076C133.53 67.3076 132.783 67.4436 132.104 67.7836C131.425 68.1236 130.813 68.5996 130.202 69.2796C130.338 67.1716 130.61 65.7436 130.949 65.1316C131.425 64.2476 132.036 63.7716 132.919 63.7716C133.395 63.7716 133.802 63.9076 134.074 64.2476C134.413 64.5876 134.617 65.1316 134.753 65.8796L139.848 65.1996C139.508 64.1116 139.032 63.2276 138.489 62.5476ZM131.017 71.5235C131.493 70.9795 132.104 70.7075 132.851 70.7075C133.53 70.7075 134.142 70.9795 134.617 71.5915C135.093 72.2035 135.296 73.0195 135.296 74.1075C135.296 75.1955 135.093 76.0115 134.617 76.5555C134.142 77.0995 133.598 77.3714 132.919 77.3714C132.172 77.3714 131.561 77.0315 131.085 76.4875C130.61 75.8755 130.338 75.0595 130.338 73.9715C130.338 72.9515 130.542 72.1355 131.017 71.5235ZM156.761 66.4236L151.87 65.4716C152.278 63.8396 153.025 62.5476 154.18 61.6637C155.335 60.7797 156.965 60.3717 159.071 60.3717C161.516 60.3717 163.214 60.8477 164.301 61.7997C165.388 62.7516 165.931 63.9756 165.931 65.4036C165.931 66.2876 165.727 67.0356 165.252 67.7156C164.844 68.3956 164.165 69.0076 163.282 69.5516C164.029 69.7556 164.573 69.9595 164.912 70.2315C165.523 70.6395 165.999 71.1835 166.339 71.7955C166.678 72.4755 166.814 73.2235 166.814 74.1755C166.814 75.3315 166.542 76.4195 165.999 77.5074C165.456 78.5954 164.64 79.4114 163.554 79.9554C162.467 80.4994 161.108 80.8394 159.342 80.8394C157.644 80.8394 156.354 80.6354 155.335 80.2274C154.384 79.8194 153.569 79.2074 152.957 78.3914C152.346 77.5754 151.87 76.5555 151.531 75.3315L156.693 74.5835C156.897 75.6715 157.169 76.4875 157.644 76.8955C158.052 77.3035 158.595 77.5074 159.274 77.5074C159.954 77.5074 160.565 77.2355 160.972 76.6915C161.448 76.1475 161.652 75.4675 161.652 74.5155C161.652 73.6315 161.448 72.8835 160.972 72.4075C160.565 71.9315 159.954 71.6595 159.138 71.6595C158.731 71.6595 158.188 71.7955 157.44 71.9995L157.712 68.0556C157.984 68.1236 158.255 68.1236 158.391 68.1236C159.071 68.1236 159.614 67.9196 160.089 67.4436C160.565 66.9676 160.769 66.4236 160.769 65.8116C160.769 65.1996 160.565 64.7236 160.225 64.3836C159.886 64.0436 159.41 63.8396 158.867 63.8396C158.255 63.8396 157.78 64.0436 157.372 64.3836C157.101 64.7916 156.829 65.4716 156.761 66.4236ZM0.531647 66.1516H4.53927L5.96571 73.6995L8.07141 66.1516H12.0111L14.1168 73.6995L15.5433 66.1516H19.483L16.4942 79.6834H12.4187L10.0413 71.1835L7.66386 79.6834H3.58831L0.531647 66.1516ZM28.2454 66.1516H32.1851L33.6115 73.6995L35.7172 66.1516H39.6569L41.7626 73.6995L43.257 66.1516H47.1967L44.208 79.6834H40.1324L37.755 71.1835L35.3776 79.6834H31.3021L28.2454 66.1516ZM55.8912 66.1516H59.8309L61.2573 73.6995L63.363 66.1516H67.3027L69.4084 73.6995L70.8349 66.1516H74.7746L71.7859 79.6834H67.7103L65.3329 71.1835L62.9555 79.6834H58.8799L55.8912 66.1516ZM85.9144 70.9795H89.922V74.7195H85.9144V70.9795ZM178.973 70.9795H182.98V74.7195H178.973V70.9795ZM205.328 74.1075L208.996 75.1955C208.724 76.2155 208.385 77.0994 207.841 77.7794C207.298 78.4594 206.687 79.0034 205.871 79.3434C205.124 79.6834 204.105 79.8874 202.883 79.8874C201.388 79.8874 200.234 79.6834 199.283 79.2754C198.332 78.8674 197.517 78.1194 196.837 77.0315C196.158 75.9435 195.818 74.5835 195.818 72.8835C195.818 70.6395 196.43 68.9396 197.585 67.7156C198.739 66.4916 200.437 65.8796 202.611 65.8796C204.309 65.8796 205.668 66.2196 206.619 66.8996C207.57 67.5796 208.317 68.6676 208.792 70.0956L205.056 70.9115C204.92 70.5035 204.785 70.1635 204.649 70.0275C204.445 69.6876 204.105 69.4836 203.766 69.2796C203.426 69.0756 203.019 69.0076 202.611 69.0076C201.66 69.0076 200.913 69.4156 200.437 70.1635C200.03 70.7075 199.894 71.5915 199.894 72.8155C199.894 74.3115 200.098 75.3315 200.573 75.8755C201.049 76.4195 201.66 76.6915 202.475 76.6915C203.29 76.6915 203.902 76.4875 204.309 76.0115C204.853 75.6035 205.192 74.9235 205.328 74.1075ZM221.155 76.8275C221.766 77.8474 222.581 78.6634 223.6 79.1394C224.619 79.6154 225.842 79.8874 227.404 79.8874C228.898 79.8874 230.189 79.6154 231.14 79.0714C232.159 78.5274 232.906 77.7114 233.449 76.6915C233.993 75.6715 234.264 74.3795 234.264 72.8155C234.264 70.6395 233.653 68.9396 232.43 67.7156C231.208 66.4916 229.51 65.8796 227.2 65.8796C225.027 65.8796 223.26 66.4916 222.038 67.7156C220.815 68.9396 220.204 70.6395 220.204 72.8835C220.272 74.5155 220.543 75.8075 221.155 76.8275ZM225.23 69.9595C225.774 69.3476 226.385 69.0756 227.268 69.0756C228.151 69.0756 228.83 69.3476 229.374 69.9595C229.849 70.5715 230.121 71.4555 230.121 72.7475C230.121 74.2435 229.849 75.3315 229.374 75.8755C228.898 76.4875 228.219 76.7595 227.268 76.7595C226.385 76.7595 225.706 76.4875 225.23 75.8755C224.755 75.2635 224.483 74.3115 224.483 72.9515C224.415 71.5235 224.687 70.5715 225.23 69.9595ZM256.816 65.8796C255.457 65.8796 254.642 66.6956 254.099 67.3756C253.487 66.4916 252.672 65.8796 251.246 65.8796C250.295 65.8796 249.48 66.2196 248.868 66.8996C248.868 66.8316 248.868 66.2196 248.868 66.2196H245.336V79.0714H249.004V71.3875C249.004 69.5516 249.819 69.5516 250.159 69.5516C251.11 69.5516 251.246 70.0956 251.246 71.4555V79.0714H254.914V71.4555C254.914 69.5516 255.865 69.5516 256.204 69.5516C256.816 69.5516 257.155 70.1635 257.155 71.3875V79.0714H260.823V70.3675C260.823 67.6476 259.261 65.8796 256.816 65.8796Z" fill="black"/>
<path d="M44.0042 20.2522C44.208 20.0482 44.4118 19.8442 44.5476 19.6402C44.5476 19.3682 44.5476 19.0962 44.5476 18.8922C44.5476 18.0763 44.5476 17.3963 44.6835 16.8523C44.8193 16.2403 44.8193 15.3563 44.8193 14.1323C44.6835 13.1123 44.2759 12.1603 43.4608 11.2763C41.4909 9.57636 39.8607 8.96437 38.5701 9.37237C37.8229 9.57636 36.9399 9.57636 35.7172 9.30436C34.2229 8.96437 32.7285 9.10037 31.3021 9.78036C30.6228 10.0524 30.1473 10.1884 29.8077 10.1884C29.4681 10.1204 29.1964 10.1204 28.9247 10.1884C28.7888 10.2564 28.7209 10.2564 28.653 10.3244C27.4303 10.8003 26.6152 11.2763 26.1397 11.6163C26.0718 11.6843 26.0718 11.8203 26.0039 11.9563C25.3925 13.1803 25.1208 13.9963 25.1887 14.4723C25.3246 15.6283 25.4604 16.4443 25.5284 16.8523C25.4604 17.9403 25.6642 18.8242 26.0718 19.5042C26.0718 19.5722 26.0718 19.5722 26.0718 19.6402L26.2076 19.7082C26.819 20.2522 27.4303 20.6602 27.8379 21.0002C27.9058 21.0682 27.9737 21.1362 27.9737 21.1362C28.4492 21.0002 28.8567 20.9322 29.1964 21.0002C29.6718 21.1362 30.2153 21.1362 30.8266 21.0002C31.3021 20.8642 31.7775 20.8642 32.1851 20.9322C32.7285 21.0002 33.204 20.9322 33.5436 20.6602C33.9512 20.5242 34.5625 20.4562 35.4455 20.5242H35.5135C35.8531 20.3202 36.1248 20.1162 36.2607 19.9802C36.3965 19.8442 36.4644 19.7082 36.6682 19.5722C36.6682 19.3002 36.8041 19.0962 36.9399 18.9602C37.0758 18.6882 37.2116 18.3482 37.3475 17.8723C37.3475 17.5323 37.2795 17.1243 37.2116 16.5123C37.1437 16.1043 37.1437 15.7643 37.2116 15.4923C37.4833 14.8803 37.6192 14.3363 37.6871 13.8603C37.6871 13.0443 38.0267 12.3643 38.6381 11.9563C39.3173 11.4123 39.9286 11.1403 40.3362 11.2763C40.7438 11.3443 41.0155 11.6843 41.2872 12.0923C41.5589 12.7043 41.6947 13.3843 41.6947 14.1323C41.6268 14.6763 41.4909 15.2203 41.2872 15.6963C41.0834 16.1723 40.8117 16.6483 40.4041 17.0563C39.9966 17.5323 39.7928 18.2122 39.7928 19.0962C39.7249 19.3002 39.7249 19.5042 39.6569 19.7082C39.7928 19.8442 39.8607 19.9122 39.9966 20.1162C40.0645 20.1162 40.0645 20.1842 40.1324 20.2522C40.6079 20.1842 41.1513 20.2522 41.8306 20.3882C42.5098 20.4562 43.0532 20.4562 43.5966 20.4562C43.6646 20.4562 43.7325 20.4562 43.7325 20.5242C43.8004 20.3882 43.8683 20.3882 43.8683 20.3882C43.8683 20.3882 43.8683 20.3202 44.0042 20.2522ZM32.8644 27.8001C32.8644 27.6641 32.8644 27.5961 32.9323 27.4601C33.0002 27.0521 32.9323 26.7121 32.7964 26.3721C32.7964 26.1681 32.7964 25.8961 32.7964 25.6921C32.7964 25.4882 32.7964 25.2842 32.7964 25.0802C32.6606 24.9442 32.5927 24.8762 32.3889 24.8082C31.9813 24.5362 31.5058 24.4002 31.0304 24.2642H30.9624C30.3511 24.6042 29.8756 24.7402 29.536 24.8082C29.1284 24.8762 28.7209 24.9442 28.3813 24.9442C28.1775 25.0122 28.1096 25.0802 28.0416 25.0802C27.6341 25.3522 27.3624 25.5561 27.2265 25.8281C27.0227 26.0321 26.8869 26.2361 26.819 26.4401C26.751 27.1881 26.6831 27.7321 26.5473 28.1401C26.3435 28.6161 26.2756 29.0921 26.2756 29.7041C26.6831 29.2281 27.2265 28.9561 27.9058 28.7521C28.4492 28.5481 28.9247 28.4801 29.2643 28.4801C29.6719 28.6161 30.0794 28.6161 30.487 28.4801C30.8945 28.3441 31.2341 28.3441 31.5738 28.4801C31.6417 28.4801 31.6417 28.4801 31.7096 28.4801C32.253 28.2761 32.5927 28.0721 32.8644 27.8001ZM49.5062 43.1679C49.71 44.0519 49.71 44.7999 49.5741 45.3439C49.3703 45.7519 49.3024 46.0239 49.2345 46.2959C49.0986 46.7039 48.9628 46.9759 48.8269 47.1119C48.2835 47.5879 47.6722 47.7919 46.9929 47.7919C46.3816 47.7919 45.8382 47.4519 45.4306 46.9079C44.9552 46.1599 44.7514 45.5479 44.8193 45.0719C44.8872 44.6639 44.8193 44.2559 44.6835 43.9839C44.5476 43.7119 44.5476 43.3719 44.6835 43.0999C44.8193 42.6919 44.8193 42.2839 44.6835 41.8759C44.4118 40.7879 44.2759 39.972 44.4118 39.496C44.6155 37.864 44.5476 36.3 44.2759 34.804C44.208 34.396 44.208 33.988 44.2759 33.648C44.3438 33.24 44.3438 32.6961 44.2759 31.8801C44.208 30.9281 44.208 30.2481 44.4118 29.7041C44.6155 29.0241 44.6155 28.2761 44.5476 27.4601C44.4118 27.0521 44.3438 26.5081 44.3438 25.8281C44.0042 25.4881 43.7325 25.2162 43.4608 25.0802C43.0532 24.6722 42.7136 24.3322 42.5098 24.1962C42.4419 24.1282 42.374 24.1282 42.2381 24.1282C41.1513 23.7882 39.9966 23.7202 38.9098 23.9922C38.4343 24.1282 38.0267 24.1282 37.6871 24.1282C37.2795 24.1962 37.0078 24.2642 36.872 24.4002C36.6682 24.4682 36.4644 24.6042 36.3286 24.7402C36.3965 24.8082 36.3965 24.8762 36.3965 24.8762C36.3965 25.2842 36.3965 25.6921 36.4644 26.1681C36.4644 26.4401 36.4644 26.7121 36.3286 26.9841C36.2607 27.0521 36.2607 27.1201 36.2607 27.1881C36.5324 27.5281 36.872 27.8681 37.2116 28.0721C37.2116 28.1401 37.2795 28.1401 37.3475 28.2081C37.8229 28.1401 38.3664 28.2081 38.9777 28.3441C39.6569 28.4121 40.2683 28.4121 40.8117 28.3441C41.3551 28.4121 41.9664 28.5481 42.4419 28.9561C43.0532 29.3641 43.3249 29.9081 43.3249 30.6561C43.3929 31.2681 42.9853 31.8121 42.2381 32.1521C41.3551 32.4921 40.4041 32.4241 39.3173 32.0841C38.5701 31.8801 37.6871 31.8121 36.872 31.9481C36.2607 32.1521 35.6493 32.1521 35.038 32.0161H34.9701C33.5436 32.4921 32.5247 32.968 31.9813 33.308L32.0493 33.376C32.1851 33.92 32.0493 34.6 31.7096 35.552C31.6417 35.96 31.6417 36.3 31.6417 36.504C31.6417 36.708 31.6417 37.116 31.6417 37.592C31.6417 38 31.7096 38.408 31.8455 38.68C31.9134 38.884 31.9813 39.088 32.1172 39.224C32.5927 39.496 32.6606 39.904 32.4568 40.4479C32.253 40.9919 31.9134 41.3319 31.4379 41.5359C31.1662 41.6039 30.8945 41.6039 30.6907 41.5359C30.487 41.4679 30.2153 41.3999 29.8756 41.2639C29.1284 41.0599 28.585 40.38 28.2454 39.292C27.9737 37.796 27.8379 36.64 27.9737 35.756C28.0416 35.348 28.1096 34.94 28.1096 34.6C28.1096 34.464 28.1096 34.328 28.1096 34.192C28.0416 33.92 27.9737 33.716 27.8379 33.58C27.702 33.376 27.6341 33.24 27.4982 33.104C27.1586 33.104 26.8869 33.104 26.6152 33.036C26.2756 32.8321 26.0039 32.6961 25.8001 32.5601C25.8001 32.6281 25.8001 32.6961 25.868 32.8321C25.868 33.308 25.8001 33.852 25.6642 34.532C25.3925 35.076 25.3246 35.62 25.3246 36.028C25.3246 36.368 25.2567 36.64 25.1887 36.98C25.0529 37.252 25.0529 37.524 25.0529 37.864C25.0529 38.204 24.985 38.544 24.8491 38.884C24.6453 39.292 24.5774 39.7 24.5774 40.108C24.5774 40.38 24.5095 40.7199 24.3736 41.1959C23.8302 42.4879 23.4906 43.5759 23.3547 44.3239C23.2189 44.8679 22.8793 45.3439 22.4717 45.8199C21.8604 46.3639 21.249 46.7039 20.7056 46.7719C20.2302 46.7719 19.7547 46.7039 19.2113 46.4319C18.7358 46.0919 18.4641 45.6839 18.3282 45.2079C18.1924 44.7319 18.1924 44.2559 18.1924 43.8479C18.3282 43.3719 18.4641 42.9639 18.5999 42.6239C18.8716 42.3519 19.1433 41.9439 19.483 41.3319C20.0943 40.6519 20.366 40.04 20.366 39.564C20.4339 39.156 20.5698 38.884 20.7056 38.748C21.0453 37.932 21.249 37.184 21.3849 36.572C21.5887 36.096 21.7245 35.688 21.7245 35.348C21.7245 33.92 21.9962 32.5601 22.5396 31.2001C22.8793 30.3841 22.8793 29.5681 22.6755 28.8201C22.7434 28.2081 22.8113 27.8001 22.8113 27.5281C23.0151 26.9841 23.083 26.4401 23.0151 25.8961C22.8793 25.0122 22.8793 24.1962 22.9472 23.4482C23.0151 22.7682 22.9472 21.4762 22.8113 19.5042C22.7434 18.3482 22.4038 17.4643 21.9962 16.8523C21.3849 15.9003 20.9773 14.7443 20.9773 13.3163C20.8415 11.8883 21.0453 10.5283 21.6566 9.30436C22.2679 7.87638 22.8113 7.0604 23.3547 6.7884C24.1699 6.38041 24.917 6.3804 25.5284 6.8564C25.4604 6.7884 25.4604 6.7884 25.5284 6.7884C25.6642 6.7204 25.9359 6.7204 26.2756 6.7884C26.4793 6.7884 26.819 6.7884 27.2265 6.7204C28.0416 6.44841 28.8567 6.3804 29.6039 6.5164C30.1473 6.6524 30.6228 6.6524 30.9624 6.5844C31.7096 6.2444 32.253 6.10841 32.5927 6.17641C32.7964 6.24441 33.0681 6.17641 33.4078 6.04041C34.2908 5.70042 35.038 5.63241 35.6493 5.83641C36.3286 6.04041 37.0078 6.04041 37.6871 5.90441C38.7739 5.70041 39.7249 5.70041 40.54 5.83641C41.0155 5.90441 41.423 5.90441 41.7626 5.90441C42.1702 5.90441 42.4419 6.04041 42.7136 6.2444C43.1212 6.5164 43.5287 6.5844 43.9363 6.5844C44.4797 6.5844 44.9552 6.5844 45.3627 6.7204C45.8382 6.9924 46.1099 7.19639 46.2458 7.46839C46.4495 7.87639 46.7892 8.21638 47.3326 8.42038C48.2156 8.89637 48.8269 9.71236 49.1666 10.8003C49.3024 11.4123 49.3024 12.0243 49.1666 12.7043C49.0986 13.1803 48.8949 13.5203 48.6232 13.7243C48.3515 13.9963 48.2156 14.3363 48.2156 14.6763C48.2156 15.0843 48.0797 15.3563 48.0118 15.4923C47.808 15.9003 47.808 16.3083 47.876 16.5803C48.0118 16.9203 48.0118 17.2603 47.876 17.7363C47.6722 18.9602 47.6043 20.1842 47.7401 21.5442C47.7401 22.4282 47.6043 23.1762 47.3326 23.7202C47.1967 24.0602 47.2646 24.4682 47.4005 25.0802C47.5363 25.5561 47.4684 26.1001 47.3326 26.7801C47.1967 27.3241 47.1967 27.8681 47.3326 28.4121C47.6043 29.7721 47.6043 30.9281 47.4684 31.8801C47.2646 33.512 47.3326 34.736 47.6722 35.552C48.3514 37.592 48.6911 39.292 48.759 40.5839C49.1666 41.5359 49.3024 42.4199 49.5062 43.1679ZM36.7361 38.068C37.0078 38 37.4833 37.932 38.0947 37.932C38.706 37.864 39.1135 37.796 39.3852 37.66C40.1324 37.388 40.8117 37.524 41.5589 37.932C42.1702 38.272 42.5098 38.816 42.6457 39.564C42.7136 40.3799 42.4419 40.9239 41.8985 41.2639C41.2192 41.6719 40.2683 41.8079 39.0456 41.6719C38.706 41.6039 38.5022 41.6039 38.4343 41.6039C38.2305 41.6719 37.9588 41.6719 37.755 41.6719C37.4833 41.6719 37.2116 41.7399 37.0078 41.8079C36.3965 42.0119 35.5814 42.0119 34.6304 41.7399C34.155 41.3999 33.8832 40.9919 33.8153 40.3799C33.8153 39.972 34.0191 39.564 34.2229 39.088C34.6304 38.612 35.1059 38.34 35.6493 38.272C36.1248 38.272 36.4644 38.136 36.7361 38.068ZM29.536 13.5203C29.7398 13.3843 29.8756 13.2483 29.9436 13.0443C30.0115 12.7723 30.3511 12.6363 31.0983 12.6363C31.6417 12.6363 32.1172 12.8403 32.4568 13.2483C32.7964 13.7923 33.0681 14.3363 33.1361 14.8803C33.204 15.1523 33.2719 15.3563 33.4078 15.5603C33.4757 15.7643 33.4757 15.9683 33.4078 16.1723C33.5436 16.6483 33.5436 17.0563 33.6115 17.2603C33.6795 17.5323 33.6115 17.9402 33.4757 18.4162C33.204 19.0282 32.9323 19.3682 32.5927 19.5042C32.253 19.6402 31.8455 19.4362 31.3021 18.8922C30.5549 18.4162 30.1473 17.8723 30.0115 17.3283C29.6718 16.5123 29.4681 15.9683 29.4001 15.6283C29.4001 15.4243 29.3322 15.0163 29.2643 14.4723C29.2643 13.8603 29.3322 13.5203 29.536 13.5203ZM12.2149 21.2722C12.147 21.2722 12.147 21.3402 12.2149 21.2722C11.8753 21.5442 11.4677 21.6802 10.8564 21.7482C10.3809 21.8162 10.0413 22.0882 9.90543 22.5642C9.63373 23.2442 9.15825 23.7882 8.47899 24.1962C8.00351 24.4682 7.79973 24.8082 7.73181 25.2841C7.66388 25.8961 7.4601 26.3721 7.12047 26.7121C6.64499 27.1201 6.44122 27.5281 6.44122 27.8681C6.57707 28.4801 6.9167 29.0921 7.4601 29.7041C7.86766 29.9081 8.27521 30.0441 8.68277 30.0441C9.22618 30.1121 9.5658 30.1801 9.83751 30.3161C10.1771 30.5201 10.5168 30.5881 10.7205 30.4521C11.196 30.2481 11.6036 30.2481 11.8074 30.3161C12.2149 30.3841 12.7583 30.3161 13.3697 30.0441C13.981 29.7721 14.5244 29.2961 14.9999 28.7521C14.9999 28.6841 14.9999 28.6841 14.9999 28.6161C14.9999 28.0041 15.0678 27.4601 15.2036 27.1201C15.4074 26.6441 15.4754 26.1001 15.4074 25.4202C15.3395 24.8082 15.2036 24.3322 14.9319 24.0602C14.864 23.9242 14.7961 23.7202 14.6602 23.4482C14.5244 23.0402 14.3206 22.7002 14.0489 22.4962C13.9131 22.3602 13.8451 22.2242 13.7772 22.0882C13.7093 21.9522 13.6414 21.8842 13.5734 21.7482C13.1659 21.6122 12.6904 21.4762 12.2149 21.2722ZM2.84115 29.7721C2.90907 29.3641 2.84115 28.8881 2.7053 28.4121C2.56945 27.8681 2.7053 27.2561 3.11285 26.5761C3.65626 25.3521 4.19967 24.6042 4.74307 24.4002C5.0827 24.1962 5.28648 23.8562 5.3544 23.3122C5.3544 22.8362 5.62611 22.2242 6.10159 21.5442C6.37329 20.9322 6.37329 20.3202 6.16951 19.7762C6.10159 19.5042 6.03366 19.2322 5.76196 18.9602C5.55818 18.6202 5.28648 18.4842 5.0827 18.4162C4.47137 18.2122 4.13174 17.9403 3.92796 17.5323C3.79211 17.3283 3.58833 17.1923 3.38456 17.1243C3.11285 16.9883 2.977 16.7843 3.04493 16.4443C3.11285 16.2403 2.977 15.9683 2.7053 15.7643C2.43359 15.4923 2.29774 15.2203 2.29774 14.8803C2.22982 13.8603 2.36567 13.2483 2.56945 13.1123C2.84115 12.9083 2.90907 12.6363 2.90907 12.4323C2.90907 12.0923 3.18078 11.3443 3.72418 10.2564C4.40344 8.96437 4.87892 8.21638 5.0827 8.01239C5.21855 7.94439 5.3544 7.67239 5.49026 7.33239C5.62611 7.0604 5.82988 6.7884 6.10159 6.5844C6.30537 6.4484 6.44122 6.24441 6.50914 5.97241C6.57707 5.63242 6.78085 5.42842 7.05255 5.29242C7.25633 5.22442 7.4601 4.95242 7.73181 4.54443C8.27521 3.52444 8.7507 2.98045 9.09032 3.04845C9.42995 3.04845 9.70166 2.98045 9.90543 2.84445C10.2451 2.64045 10.7205 2.57246 11.264 2.70845C11.6715 2.84445 12.0111 2.91245 12.2149 2.84445C12.7583 2.70845 13.4376 2.84445 14.1848 3.25245C15.0678 3.86444 15.4754 4.47643 15.5433 5.15642C15.6112 5.83641 15.4754 6.17641 15.2036 6.31241C14.5923 6.7884 14.1848 6.99239 13.7772 6.9244C13.3697 6.8564 13.0979 6.9244 12.9621 7.0604C12.6904 7.26439 12.3508 7.33239 12.0111 7.33239C11.6715 7.2644 11.3998 7.33239 11.1281 7.53639C10.9243 7.74039 10.7205 7.80839 10.5847 7.80839C10.3809 7.74039 10.1771 7.87639 9.97336 8.14838C9.70166 8.48838 9.49788 8.76038 9.49788 9.03237C9.42995 9.44037 9.2941 9.64436 9.09032 9.78036C8.81862 9.98436 8.61484 10.3244 8.47899 10.7323C8.27521 11.2083 8.13936 11.4803 8.00351 11.4803C7.73181 11.6843 7.52803 12.1603 7.39218 13.0443C6.9167 13.9963 6.78085 14.7443 6.98462 15.1523C7.39218 15.7643 7.73181 16.1723 7.93559 16.3083C8.20729 16.3763 8.34314 16.5123 8.34314 16.6483C8.41107 16.9203 8.75069 17.1243 9.15825 17.1243C9.5658 17.1923 9.76958 17.2603 9.90543 17.3283C10.3809 17.6003 10.7885 17.5323 11.1281 17.1923C11.3998 16.9203 11.6715 16.7163 11.9432 16.7163C12.3508 16.6483 12.6225 16.4443 12.7583 15.9683C12.8942 15.6963 12.9621 15.5603 13.0979 15.4243C13.4376 15.2203 13.7093 14.8123 13.8451 14.2683C13.981 13.8603 14.1168 13.5883 14.2527 13.4523C14.5244 13.1803 14.5923 12.9083 14.4565 12.6363C14.4565 12.3643 14.0489 12.0243 13.3697 11.6843C13.0979 11.4803 13.0979 11.1403 13.3017 10.5283C13.5055 10.1884 13.7772 9.98435 14.2527 9.98435C14.5244 9.91636 14.7282 9.84836 14.9319 9.71236C15.2036 9.50837 15.4754 9.50836 15.815 9.64436C16.0188 9.78036 16.2905 9.78036 16.698 9.78036C17.7169 9.84836 18.532 10.3244 19.1433 11.1403C19.5509 11.6843 19.6868 12.0243 19.483 12.2963C19.2792 12.5683 19.3471 12.9763 19.5509 13.4523C19.6868 13.8603 19.6868 14.3363 19.5509 14.7443C19.2792 15.3563 18.9396 15.7643 18.5999 15.7643C17.7169 16.0363 17.0376 16.4443 16.5622 16.9203C16.2225 17.1923 16.0867 17.5323 16.0188 17.8043C15.9508 18.0082 15.815 18.2122 15.815 18.4162C15.815 18.5522 15.815 18.6202 15.8829 18.6202C15.9508 18.9602 16.0188 19.4362 16.0188 19.9802C16.0867 20.0482 16.0867 20.0482 16.1546 20.1162C16.2225 20.3202 16.3584 20.4562 16.4942 20.5242C16.8339 20.6602 17.1056 20.9322 17.2414 21.4082C17.3773 21.7482 17.5811 22.0882 17.8528 22.2922C18.1245 22.4282 18.3282 22.7682 18.4641 23.1762C18.7358 23.9242 18.9396 24.6042 18.9396 25.1482C19.0075 25.8961 19.1433 26.4401 19.2792 26.7801C19.483 27.2561 19.5509 27.7321 19.483 28.0721C19.415 28.8201 19.2113 29.5001 18.8037 30.0441C18.532 30.3161 18.1924 30.5201 17.9207 30.6561C17.7169 30.8601 17.4452 31.0641 17.1056 31.3361C16.4263 31.7441 15.8829 32.2881 15.4074 32.8321C14.7282 33.648 13.7772 34.124 12.4866 34.192C12.0111 34.192 11.5357 34.26 11.0602 34.396C10.4488 34.532 9.90543 34.464 9.36203 34.124C8.61484 33.716 8.00351 33.58 7.32425 33.58C6.30537 33.648 5.28648 33.308 4.33552 32.4921C3.18078 31.3361 2.77322 30.3161 2.84115 29.7721ZM15.3395 35.824C15.5433 35.688 15.6791 35.484 15.7471 35.28C15.815 35.008 16.2225 34.872 17.0376 34.872C17.5811 34.872 18.0565 35.076 18.4641 35.552C18.8716 36.096 19.0754 36.64 19.2113 37.184C19.2792 37.456 19.3471 37.728 19.4151 37.932C19.483 38.136 19.483 38.408 19.4151 38.612C19.5509 39.088 19.6188 39.496 19.6188 39.768C19.6868 40.108 19.6188 40.4479 19.483 40.9239C19.1433 41.5359 18.8037 41.9439 18.4641 42.0119C18.1245 42.1479 17.649 41.9439 17.0376 41.3999C16.2905 40.8559 15.8829 40.2439 15.7471 39.7C15.3395 38.816 15.1357 38.272 15.1357 37.932C15.1357 37.66 15.0678 37.252 14.9319 36.708C15.0678 36.164 15.2036 35.824 15.3395 35.824ZM9.63373 37.388C9.83751 37.32 10.0413 37.184 10.1771 37.048C10.313 36.776 10.7205 36.776 11.4677 37.048C11.9432 37.252 12.3508 37.524 12.5545 38C12.7583 38.612 12.8262 39.224 12.7583 39.768C12.6904 40.7199 12.8262 41.5359 13.03 42.3519C13.0979 43.0999 12.9621 43.8479 12.6225 44.5959C12.5545 45.0719 12.5545 45.4799 12.4866 45.7519C12.4187 46.0919 12.2828 46.4319 12.0111 46.7719C11.5357 47.2479 11.1281 47.5198 10.7885 47.5198C10.4488 47.5878 10.1092 47.2479 9.70166 46.5679C9.22618 45.8199 8.95447 45.2079 9.0224 44.6639C8.7507 42.7599 8.61484 41.4679 8.7507 40.7879C8.88655 40.312 8.95447 39.428 9.09032 38.204C9.2941 37.66 9.49788 37.388 9.63373 37.388ZM3.18078 37.796C3.45248 36.776 3.86004 36.164 4.47137 35.96C5.0827 35.756 5.62611 35.96 6.03366 36.572C6.37329 37.116 6.37329 37.796 6.03366 38.68C5.96574 39.292 5.96574 39.972 5.96574 40.6519C6.16951 41.3319 6.10159 41.9439 5.82988 42.4879C5.55818 43.0999 5.21855 43.6439 4.811 44.1199C4.53929 44.6639 4.33552 45.2759 4.13174 45.9559C3.92796 46.6359 3.65626 47.1119 3.2487 47.3159C2.84115 47.5879 2.29774 47.6558 1.61848 47.5198C1.00715 47.3159 0.667522 46.9079 0.53167 46.2959C0.327893 45.6159 0.395819 44.8679 0.599596 44.1199C0.8713 43.5759 1.07508 42.8959 1.21093 42.0799C1.21093 40.9239 1.61848 39.904 2.36567 39.02C2.7053 38.612 3.04493 38.204 3.18078 37.796ZM75.318 40.8559C75.6576 40.448 76.1331 40.108 76.7444 39.836C77.2878 39.564 77.7633 39.224 78.1709 38.816C78.9181 38.272 79.5294 37.864 80.0049 37.66C80.82 37.184 81.8389 36.504 83.0615 35.756C84.0125 35.076 84.6918 34.532 85.1672 34.328C85.4389 33.92 85.7786 33.58 86.1861 33.308C87.205 32.6961 88.156 32.0161 89.039 31.2001C89.7862 30.7241 90.3975 30.5201 90.9409 30.6561C91.7561 30.8601 92.1636 31.3361 92.0957 32.0841C91.9598 32.764 91.4843 33.376 90.7372 33.852C90.3296 34.124 89.99 34.464 89.6504 34.94C88.8353 35.62 88.0881 36.232 87.4088 36.776C86.8654 37.048 86.3899 37.456 85.9824 38.068C85.1672 38.884 84.4201 39.428 83.7408 39.7C83.537 40.04 83.4691 40.448 83.4012 40.8559C83.2653 41.4679 83.1974 41.8079 83.1295 41.8079C82.8578 41.7399 82.5181 41.7399 82.2464 41.8079C81.9747 41.8759 81.6351 41.8759 81.1596 41.9439C81.0238 41.9439 80.9558 41.9439 80.8879 42.0119C80.82 42.0119 80.82 42.0119 80.7521 42.0799C80.2766 42.4199 79.8011 42.7599 79.4615 43.2359C79.1218 43.5759 78.5105 43.9839 77.5596 44.3239C77.0841 44.5279 76.5407 44.9359 75.9293 45.4799C75.4538 45.8199 74.7067 46.2279 73.5519 46.7039C72.1255 47.4519 71.0387 47.7919 70.4953 47.7919C70.1556 47.7919 69.6122 47.9958 68.865 48.5398C68.0499 49.0838 67.1669 49.4238 66.4197 49.4238C65.4008 49.5598 64.6536 49.4238 64.1102 49.0838C63.431 48.6758 62.9555 47.9958 62.7517 47.1799C62.6159 46.5679 62.9555 45.9559 63.6348 45.2079C64.2461 44.5959 65.0612 44.2559 66.0122 44.1879C67.6424 43.9839 68.7971 43.6439 69.4085 43.2359C69.816 42.9639 70.4953 42.7599 71.3104 42.6239C73.484 41.9439 74.7746 41.3319 75.318 40.8559ZM89.7183 49.0838C88.8352 49.4238 88.156 49.5598 87.6805 49.4238C87.0692 49.2198 86.5937 49.0838 86.2541 49.0838C85.5069 48.9478 85.0314 48.7438 84.8276 48.4038C84.6918 47.9958 84.4201 47.6559 84.1484 47.3159C83.8087 47.0439 83.6729 46.7039 83.6049 46.3639C83.537 46.0919 83.4012 45.8199 83.1974 45.5479C82.7898 45.0039 82.5861 44.4599 82.5861 43.9159C82.5181 43.3039 82.7219 42.8959 82.9936 42.6919C83.4691 42.3519 84.1484 42.3519 84.8955 42.8279C85.2352 43.0319 85.6427 43.3039 86.1182 43.7119C86.3899 43.8479 86.5937 43.9159 86.8654 43.9159C87.5446 44.1199 88.5635 44.0519 89.8541 43.7119C91.5523 43.3719 92.6391 42.9639 93.1146 42.5559C93.2504 42.2839 93.5221 42.0799 93.8618 42.0799C94.6089 41.7399 95.4241 41.0599 96.3071 39.904C96.6467 39.428 96.9184 39.088 97.1901 38.816C97.8015 38.204 98.3449 37.116 98.8203 35.688C99.092 34.192 99.092 33.104 98.7524 32.4921C98.3449 31.3361 97.6656 30.3161 96.6467 29.4321C96.4429 29.2961 96.3071 29.2281 96.1712 29.2281C95.6957 29.2281 95.2882 29.2961 95.0844 29.2961C94.541 29.4321 94.1335 29.5001 93.7938 29.5001C93.4542 29.5681 93.1825 29.6361 92.9108 29.6361C92.707 29.6361 92.5032 29.2281 92.3674 28.5481C92.1636 27.8001 91.8919 27.1881 91.6881 26.7121C91.5523 26.5081 91.4843 26.3041 91.4164 26.2361C91.2126 26.1681 91.0089 26.1001 90.8051 26.1001C89.8541 25.8961 89.2428 25.8961 88.9032 26.0321C88.2239 26.2361 87.6805 26.2361 87.3409 26.1681C87.2729 26.1681 87.2729 26.1681 87.205 26.1681C87.0012 26.7121 86.5937 27.1881 85.9144 27.5961C85.5069 27.8681 85.2352 28.1401 84.9635 28.4801C84.2163 29.0921 83.537 29.6361 82.8578 30.1121C82.3823 30.3841 81.9068 30.7921 81.5672 31.2681C80.7521 31.9481 80.0728 32.4241 79.5294 32.764C79.1898 32.968 78.7822 33.24 78.4426 33.58C77.8992 34.124 77.3558 34.532 76.8124 34.872C76.3369 35.076 75.9293 35.416 75.5897 35.824C75.2501 36.232 74.6387 36.572 73.8916 36.776C73.484 36.98 73.0085 37.32 72.4651 37.864C71.9896 38.136 71.2425 38.476 70.2915 38.952C69.0009 39.564 68.0499 39.836 67.5065 39.836C67.2348 39.768 66.7593 40.04 66.0801 40.4479C65.3329 40.9239 64.5857 41.1959 63.8385 41.2639C62.8876 41.3319 62.2083 41.1959 61.7328 40.8559C61.1215 40.448 60.714 39.904 60.5781 39.088C60.4422 38.612 60.7139 38 61.3932 37.388C62.0045 36.844 62.7517 36.504 63.5668 36.504C65.1291 36.368 66.148 36.096 66.6914 35.756C67.0311 35.552 67.6424 35.348 68.3896 35.212C70.2236 34.6 71.3783 34.056 71.9217 33.58C72.2613 33.24 72.6689 32.968 73.2802 32.6961C73.7557 32.4241 74.2312 32.1521 74.5708 31.8121C75.2501 31.3361 75.7935 30.9961 76.269 30.7921C77.0841 30.3161 78.035 29.7721 79.1218 29.0921C80.0049 28.4801 80.6162 28.0721 80.9558 27.8001C81.2275 27.4601 81.5672 27.1881 81.9068 26.9161C82.7219 26.5081 83.4012 26.0321 84.0804 25.4881L84.0125 25.4202C83.537 25.1482 83.2653 24.6042 83.2653 23.7882C83.3332 23.0402 83.7408 22.4962 84.488 22.1562C85.2352 21.8842 85.9824 21.8162 86.6616 21.8162C87.3409 21.8842 88.0881 21.9522 88.8353 22.0882C89.6504 22.3602 90.2617 22.4282 90.7372 22.2922C91.0089 22.1562 91.4164 22.1562 91.824 22.1562C92.2315 22.3602 92.7749 22.4282 93.3183 22.4282C93.658 22.3602 94.0655 22.4962 94.541 22.7682C95.3561 23.3802 96.1712 23.7882 96.9864 24.1282C97.7335 24.4682 98.2769 24.8762 98.4807 25.2841C98.9562 25.8281 99.7034 26.5081 100.586 27.1201C100.994 27.3921 101.198 27.8001 101.198 28.3441C101.402 28.7521 101.673 29.2961 102.013 29.9761C102.352 30.3841 102.556 30.9281 102.488 31.4721C102.556 31.8801 102.76 32.2881 102.964 32.6281C103.168 32.9001 103.168 33.24 103.032 33.512C102.828 33.92 102.76 34.396 102.896 34.94C103.168 35.348 103.032 36.164 102.556 37.32C102.488 37.592 102.42 38 102.42 38.408C102.42 39.02 102.081 39.836 101.402 40.9239C100.518 42.0119 99.9072 42.5559 99.5675 42.5559C99.2958 42.7599 99.092 43.0319 98.8883 43.5079C98.3449 44.1879 97.5298 44.9359 96.4429 45.6159C94.2693 47.1119 92.707 47.9278 91.9598 48.0638C91.4164 48.4718 90.6692 48.7438 89.7183 49.0838ZM72.3293 5.56441C71.3104 5.29242 70.767 4.74843 70.767 3.93244C70.767 3.11645 70.9707 2.57246 71.5821 2.09646C72.2613 1.55247 73.0764 1.21248 74.0953 1.21248C74.7067 1.14448 75.318 1.07648 75.9973 0.940479C76.9482 0.600484 77.9671 0.396484 79.1898 0.396484C80.6841 0.396484 81.8389 0.396487 82.654 0.532486C83.7408 0.804482 84.8955 0.872478 86.1182 0.73648C87.9522 0.464483 89.5824 0.668482 91.0089 1.34847C91.3485 1.62047 91.8919 1.68847 92.5712 1.68847C93.3184 1.75647 94.0655 2.09646 94.8806 2.70845C95.7637 3.25245 96.2392 3.72844 96.2392 4.13643C96.3071 4.54443 96.4429 4.95243 96.8505 5.29242C97.326 5.76842 97.5298 6.7204 97.4618 8.01239C97.5977 8.62438 97.7335 9.23637 97.9373 9.64436C98.209 10.1204 98.3449 10.8683 98.3449 11.8203C98.3449 12.9763 98.3449 14.0643 98.3449 15.0163C98.2769 16.5123 97.9373 17.6003 97.258 18.2802C96.7146 19.0962 95.8316 19.7762 94.6769 20.1842C93.7938 20.6602 92.707 20.8642 91.2806 20.7282C90.3296 20.6602 89.5145 20.6602 88.8353 20.8642C88.0881 21.1362 87.3409 21.2042 86.6616 21.0002C86.0503 20.7282 85.371 20.6602 84.6918 20.8642C83.8767 21.2722 83.1974 21.2722 82.5181 21.0002C82.0427 20.7962 81.4993 20.7282 80.8879 20.8642C80.6841 21.4762 80.4804 22.0882 80.1407 22.7002C79.8011 23.1762 79.3256 23.6522 78.7143 24.1282C78.3747 24.4002 78.103 24.6722 77.8313 25.0122C77.5596 25.5562 77.2199 25.8961 76.8124 26.0321C76.3369 26.2361 75.8614 26.5081 75.5218 26.8481C74.9104 27.4601 74.2312 27.9361 73.4161 28.2081C72.8047 28.4801 72.1934 28.8201 71.65 29.1601C71.1745 29.5681 70.4273 29.7721 69.4085 29.7721C68.5254 29.8401 67.7782 30.0441 67.1669 30.4521C66.4876 30.7921 65.9442 30.9281 65.6046 30.8601C65.1971 30.7921 64.8574 30.8601 64.5857 30.9281C63.7706 31.2681 62.8876 31.2681 61.9366 31.0641C61.2574 30.8601 60.8498 30.5881 60.8498 30.3841C60.7819 30.1121 60.714 29.9081 60.5781 29.9081C60.4422 29.7721 60.3743 29.5681 60.3064 29.2281C60.2385 28.6841 60.3743 28.1401 60.7139 27.7321C61.0536 27.3921 61.5291 27.1201 62.1404 26.9161C62.8197 26.7121 63.4989 26.7121 64.1782 26.8481C64.6536 26.9841 65.1971 26.9841 65.8763 26.9841C66.5556 26.9161 67.1669 26.7121 67.7103 26.3721C68.2537 25.9641 68.865 25.6921 69.5443 25.6921C70.2236 25.5562 70.8349 25.2842 71.3783 24.8082C71.8538 24.4002 72.3972 24.1962 73.0085 24.0602C73.8236 23.6522 74.5029 23.1762 75.0463 22.4962C75.2501 22.0882 75.4539 21.7482 75.7256 21.4762C74.8425 21.2042 73.9595 21.2722 73.2123 21.6122C72.6689 21.8162 71.8538 21.7482 70.6311 21.4082C69.4085 21.0682 68.6613 20.6602 68.3896 20.0482C68.2537 19.5042 67.9141 18.9602 67.2348 18.4842C66.6914 18.1442 66.4876 17.4643 66.6235 16.3083C66.5556 14.6083 66.4876 13.2483 66.3518 12.1603C66.148 11.5483 66.148 10.8683 66.2839 10.2564C66.3518 9.84836 66.3518 9.37236 66.3518 8.89637C66.2839 7.94438 66.4876 7.0604 66.8273 6.31241C67.099 5.76842 67.3707 5.36042 67.7103 5.15642C68.0499 4.88442 68.3896 4.74843 68.7292 4.74843C69.1367 4.81643 69.5443 4.95242 69.816 5.08842C70.1556 5.36042 70.3594 5.76842 70.4953 6.31241C70.767 6.9244 70.767 8.01238 70.6311 9.44036C70.3594 11.1403 70.3594 12.4323 70.4953 13.3163C70.699 14.4723 70.9707 15.2203 71.3783 15.6963C71.7859 16.4443 72.4651 16.9203 73.3482 17.1923C74.6387 17.6003 76.1331 17.5323 77.6954 17.0563C79.7332 16.4443 81.771 16.3763 83.7408 16.8523C84.9635 17.1243 86.1182 17.1243 87.0692 16.7163C88.0201 16.4443 89.1069 16.3083 90.3296 16.3763C91.3485 16.5123 92.1636 16.2403 92.707 15.5603C93.1825 15.2203 93.59 14.5403 93.8618 13.5883C93.9976 12.5003 93.9297 11.6163 93.5901 10.8003C93.3184 10.0524 93.1825 9.44036 93.1825 8.89637C93.1146 8.48838 93.0467 8.08038 92.9108 7.67239C92.5032 7.1284 92.2315 6.7884 92.2315 6.5844C92.0957 6.17641 91.8919 5.83641 91.6202 5.70042C91.2126 5.56442 90.9409 5.36042 90.6692 5.15642C90.3296 4.68043 88.6994 4.40843 85.7786 4.27244C83.8087 4.34043 82.1106 4.27243 80.82 4.13643C79.0539 3.79644 77.3558 4.00044 75.8614 4.74843C74.7746 5.56442 73.5519 5.76841 72.3293 5.56441ZM79.3935 9.03237C80.7521 8.76038 82.0427 8.69237 83.4012 8.96437C84.4201 9.23637 85.371 9.30437 86.1182 9.10037C87.0692 8.82837 87.8843 8.89637 88.4956 9.23637C89.1069 9.71236 89.4466 10.3244 89.5145 11.1403C89.3787 11.8883 89.039 12.3643 88.6315 12.6363C88.0201 12.9083 87.4088 12.9083 86.7975 12.7043C85.7107 12.4323 84.6918 12.3643 83.8767 12.6363C82.8578 13.0443 81.9068 13.0443 80.9558 12.7043C80.0728 12.5003 78.8501 12.5683 77.3558 12.9083C76.269 13.2483 75.318 13.2483 74.5029 12.9083C73.9595 12.4323 73.6878 11.8883 73.6878 11.2083C73.7557 10.5283 74.0274 9.98436 74.5029 9.57636C74.9784 9.10037 75.5897 9.03237 76.4048 9.23637C77.152 9.44036 78.1709 9.37237 79.3935 9.03237Z" fill="#BE3038"/>
</svg>
